<svg xmlns="http://www.w3.org/2000/svg" version="1.1" xmlns:xlink="http://www.w3.org/1999/xlink" xmlns:svgjs="http://svgjs.dev/svgjs" width="1000" height="525" viewBox="0 0 1000 525"><g transform="matrix(1,0,0,1,-0.6053625241452778,0.4955061289263085)"><svg viewBox="0 0 396 208" data-background-color="#ffffff" preserveAspectRatio="xMidYMid meet" height="525" width="1000" xmlns="http://www.w3.org/2000/svg" xmlns:xlink="http://www.w3.org/1999/xlink"><g id="tight-bounds" transform="matrix(1,0,0,1,0.23985638332942472,-0.1963148091746234)"><svg viewBox="0 0 395.52 208.39262961834925" height="208.39262961834925" width="395.52"><g><svg viewBox="0 0 395.52 208.39262961834925" height="208.39262961834925" width="395.52"><g transform="matrix(1,0,0,1,0,138.24530335253263)"><svg viewBox="0 0 395.52 70.1473262658166" height="70.1473262658166" width="395.52"><g id="textblocktransform"><svg viewBox="0 0 395.52 70.1473262658166" height="70.1473262658166" width="395.52" id="textblock"><g><svg viewBox="0 0 395.52 70.1473262658166" height="70.1473262658166" width="395.52"><g transform="matrix(1,0,0,1,0,0)"><svg width="395.52" viewBox="0.6290912628173828 -36.62574005126953 271.7606201171875 48.19801330566406" height="70.1473262658166" data-palette-color="#0718c4"><path d="M20.584-10.798v0c0.994 0.088 1.969 0.284 2.924 0.59 0.955 0.306 1.831 0.732 2.628 1.277 0.798 0.553 1.481 1.226 2.047 2.021 0.573 0.793 0.962 1.726 1.168 2.8v0c0.244 1.27 0.18 2.62-0.191 4.048-0.372 1.422-1.062 2.78-2.069 4.073-1.008 1.293-2.343 2.452-4.007 3.477-1.665 1.018-3.669 1.752-6.013 2.202v0l-9.811 1.882-6.631-34.57 10.784-2.068c1.977-0.379 3.747-0.498 5.307-0.356 1.561 0.142 2.903 0.465 4.025 0.969 1.128 0.503 2.029 1.162 2.701 1.977 0.666 0.816 1.091 1.705 1.275 2.667v0c0.157 0.818 0.15 1.631-0.021 2.438-0.171 0.807-0.451 1.594-0.84 2.36-0.389 0.767-0.872 1.508-1.448 2.223-0.569 0.713-1.178 1.377-1.828 1.99zM10.054-5.5l2.262 11.795 4.528-0.868c1.401-0.269 2.558-0.681 3.469-1.236 0.911-0.562 1.617-1.196 2.12-1.903 0.496-0.706 0.81-1.459 0.941-2.258 0.138-0.8 0.133-1.587-0.015-2.359v0c-0.183-0.956-0.531-1.744-1.044-2.366-0.513-0.621-1.156-1.088-1.928-1.402-0.781-0.319-1.673-0.494-2.677-0.525-0.999-0.039-2.081 0.053-3.246 0.276v0zM9.28-9.536l7.69-1.475c0.856-0.884 1.499-1.845 1.931-2.886 0.424-1.045 0.527-2.134 0.31-3.266v0c-0.29-1.512-1.112-2.594-2.465-3.244-1.361-0.655-3.132-0.774-5.313-0.356v0l-4.154 0.797zM39.143-29.783l5.406 34.782-5.889 0.915-5.406-34.782zM80.108-15.983l1.664 14.877c-2.13 1.11-4.18 1.947-6.149 2.509-1.962 0.568-3.805 0.949-5.528 1.142v0c-2.803 0.313-5.348 0.192-7.637-0.364-2.297-0.562-4.299-1.491-6.008-2.789-1.708-1.298-3.087-2.945-4.134-4.941-1.041-1.99-1.705-4.267-1.992-6.831v0c-0.225-2.007-0.188-3.897 0.111-5.667 0.304-1.778 0.815-3.418 1.532-4.921 0.717-1.509 1.627-2.872 2.732-4.089 1.104-1.224 2.347-2.288 3.729-3.195 1.382-0.899 2.88-1.634 4.492-2.203 1.613-0.57 3.295-0.952 5.044-1.147v0c0.57-0.064 1.209-0.108 1.917-0.134 0.707-0.032 1.461-0.043 2.261-0.032 0.8 0.018 1.63 0.062 2.49 0.134 0.861 0.078 1.736 0.195 2.625 0.351v0l-0.418 4.715-0.451 0.292c-1.757-0.595-3.383-0.947-4.877-1.054-1.495-0.108-2.775-0.102-3.842 0.017v0c-1.941 0.217-3.661 0.762-5.16 1.634-1.5 0.865-2.745 1.971-3.735 3.315-0.997 1.346-1.707 2.884-2.13 4.616-0.43 1.732-0.536 3.575-0.317 5.529v0c0.209 1.868 0.688 3.606 1.438 5.213 0.757 1.606 1.746 2.984 2.968 4.135 1.222 1.151 2.657 2.014 4.304 2.588 1.641 0.575 3.465 0.75 5.473 0.525v0c0.841-0.094 1.761-0.267 2.759-0.52 0.991-0.258 1.962-0.602 2.914-1.03v0l-1.352-12.085zM99.861-4.063v0c0.965-0.056 1.85-0.231 2.654-0.525 0.811-0.294 1.506-0.689 2.084-1.183 0.586-0.488 1.029-1.075 1.33-1.76 0.307-0.686 0.437-1.444 0.389-2.277v0c-0.057-0.985-0.342-1.81-0.855-2.474-0.512-0.658-1.176-1.224-1.992-1.698-0.809-0.474-1.721-0.892-2.738-1.253-1.016-0.355-2.052-0.719-3.108-1.091-1.057-0.373-2.096-0.79-3.118-1.251-1.022-0.461-1.947-1.032-2.774-1.712-0.821-0.687-1.497-1.519-2.029-2.496-0.531-0.977-0.838-2.178-0.921-3.603v0c-0.09-1.551 0.125-2.959 0.646-4.224 0.521-1.266 1.292-2.362 2.313-3.29 1.021-0.928 2.261-1.661 3.719-2.2 1.457-0.546 3.081-0.87 4.871-0.975v0c0.532-0.031 1.143-0.04 1.832-0.026 0.688 0.007 1.428 0.037 2.219 0.091 0.792 0.061 1.618 0.15 2.479 0.267 0.869 0.123 1.743 0.286 2.623 0.488v0l-0.668 4.707-0.445 0.266c-0.868-0.337-1.708-0.608-2.521-0.815-0.813-0.206-1.584-0.369-2.313-0.486-0.735-0.124-1.411-0.198-2.026-0.223-0.623-0.031-1.164-0.032-1.623-0.006v0c-0.879 0.051-1.671 0.201-2.378 0.449-0.713 0.255-1.308 0.597-1.783 1.026-0.483 0.429-0.847 0.944-1.092 1.546-0.246 0.595-0.347 1.269-0.304 2.021v0c0.058 1.005 0.348 1.85 0.869 2.533 0.521 0.684 1.186 1.277 1.997 1.778 0.804 0.501 1.717 0.932 2.739 1.293 1.023 0.368 2.073 0.741 3.151 1.118 1.07 0.378 2.12 0.795 3.148 1.25 1.028 0.454 1.952 1.012 2.771 1.672 0.819 0.654 1.496 1.442 2.031 2.366 0.535 0.924 0.841 2.051 0.918 3.382v0c0.086 1.484-0.145 2.9-0.694 4.247-0.549 1.348-1.368 2.547-2.455 3.599-1.081 1.045-2.407 1.9-3.978 2.566-1.564 0.659-3.328 1.045-5.292 1.159v0c-0.799 0.046-1.64 0.042-2.525-0.013-0.891-0.048-1.798-0.142-2.721-0.283-0.923-0.14-1.839-0.327-2.747-0.561-0.915-0.234-1.796-0.513-2.643-0.838v0l0.685-4.748 0.466-0.268c1.744 0.827 3.441 1.466 5.09 1.918 1.649 0.445 3.222 0.624 4.719 0.537zM140.964-1.423l-20.948 0.291-0.489-35.197 21.398-0.297-0.731 4.241-14.649 0.203 0.148 10.619 12.968-0.18-0.712 4.12-12.199 0.17 0.167 12.009 15.778-0.219zM186.078 11.29l-21.802-11.146c-2.371-0.114-4.568-0.636-6.593-1.568-2.024-0.931-3.766-2.193-5.224-3.784-1.465-1.592-2.587-3.474-3.364-5.648-0.777-2.166-1.104-4.538-0.98-7.115v0c0.087-1.825 0.393-3.542 0.917-5.152 0.524-1.61 1.226-3.095 2.106-4.454 0.873-1.36 1.902-2.575 3.088-3.646 1.192-1.064 2.49-1.956 3.892-2.677 1.409-0.713 2.906-1.246 4.492-1.597 1.592-0.351 3.234-0.486 4.925-0.405v0c2.291 0.11 4.453 0.604 6.487 1.482 2.034 0.872 3.801 2.088 5.301 3.648 1.494 1.553 2.653 3.411 3.477 5.573 0.83 2.169 1.181 4.595 1.053 7.279v0c-0.103 2.158-0.507 4.167-1.21 6.029-0.696 1.855-1.613 3.513-2.751 4.974-1.131 1.461-2.45 2.719-3.955 3.775-1.499 1.049-3.105 1.847-4.82 2.392v0l18.541 7.736zM165.487-4.033v0c1.725 0.083 3.307-0.202 4.747-0.854 1.446-0.652 2.699-1.576 3.757-2.773 1.059-1.204 1.901-2.625 2.527-4.264 0.619-1.632 0.974-3.394 1.064-5.285v0c0.095-1.984-0.116-3.843-0.634-5.577-0.518-1.733-1.273-3.248-2.265-4.544-0.999-1.296-2.201-2.331-3.606-3.106-1.405-0.775-2.956-1.203-4.653-1.284v0c-1.745-0.084-3.334 0.211-4.768 0.883-1.433 0.665-2.676 1.604-3.729 2.814-1.052 1.204-1.888 2.626-2.507 4.265-0.613 1.639-0.964 3.394-1.053 5.266v0c-0.095 1.984 0.113 3.84 0.624 5.566 0.512 1.72 1.26 3.227 2.246 4.523 0.986 1.289 2.185 2.321 3.596 3.095 1.405 0.768 2.956 1.193 4.654 1.275zM199.692-33.276l-3.597 35.016-5.929-0.609 3.598-35.016zM219.82 4.177l-7.401-0.76-12.309-19.138 15.807-15.888 6.168 0.634-16.09 14.823zM236.589-28.876l-4.907 34.856-5.901-0.83 4.906-34.857zM260.039-20.369l-5.605 30.458-5.882-1.082 5.605-30.459-11.221-2.065 1.542-4.017 27.912 5.137-1.553 4.015z" opacity="1" transform="matrix(1,0,0,1,0,0)" fill="#0718c4" class="wordmark-text-0" data-fill-palette-color="primary" id="text-0"></path></svg></g></svg></g></svg></g></svg></g><g transform="matrix(1,0,0,1,166.9175076470033,0)"><svg viewBox="0 0 61.68498470599336 113.49837389809126" height="113.49837389809126" width="61.68498470599336"><g><svg xmlns="http://www.w3.org/2000/svg" xmlns:xlink="http://www.w3.org/1999/xlink" version="1.1" x="0" y="0" viewBox="28.891000747680664 9 44.566001892089844 82" enable-background="new 0 0 100 100" xml:space="preserve" height="113.49837389809126" width="61.68498470599336" class="icon-icon-0" data-fill-palette-color="accent" id="icon-0"><g fill="#24a8df" data-fill-palette-color="accent"><g fill="#24a8df" data-fill-palette-color="accent"><path d="M51.174 72.076c3.096 0 6.047-0.979 8.729-2.125 7.961-3.402 13.554-11.481 13.554-20.672 0-8.912-5.268-16.739-12.845-20.307-0.237-0.111-0.468-0.246-0.709-0.349-2.556-1.086-5.736-1.512-8.501-1.639-4.428-0.202-8.716-1.01-12.104-4.11-0.924-0.846-1.781-1.843-2.49-2.875h28.718c-2.062 3-4.742 4.626-7.805 5.772 0.213 0.047 0.427 0.237 0.64 0.294 0.758 0.195 1.508 0.516 2.243 0.83 0.669 0.285 1.313 0.645 1.947 0.986C69.073 23.985 73.456 16.886 73.456 9h-3.564c0 0.471-0.021 0.939-0.059 1.403-0.008 0.085-0.021 0.169-0.03 0.255-0.038 0.386-0.08 0.771-0.149 1.172-0.305 1.822-0.905 4.17-1.74 5.17H34.438c-1.256-2-1.981-5.152-1.981-8h-3.564c0 8.732 5.375 16.328 13.08 19.831 0.16 0.072 0.312 0.155 0.474 0.223 2.031 0.869 4.218 1.315 6.504 1.481 5.123 0.372 9.773 1.376 13.876 4.65 1.057 0.844 2.03 1.787 2.911 2.814H36.499c2.081-3 4.845-4.922 8.03-6.133-0.974-0.252-1.904-0.677-2.785-1.054-0.6-0.257-1.183-0.6-1.753-0.896-6.629 3.864-11.1 11.011-11.1 19.222 0 8.569 4.866 16.006 11.978 19.732 0.292-0.139 0.577-0.293 0.875-0.419 1.205-0.517 2.519-0.882 3.905-1.301C41.985 66.021 38.812 64 36.49 61h29.434c-3.427 4-8.752 7.034-14.75 7.034-3.096 0-6.047 0.979-8.729 2.124C34.484 73.561 28.892 81.195 28.892 91h3.564c0-3.234 0.777-7 2.132-9h33.155c1.37 2 2.148 5.747 2.148 9h3.564c0-9.037-4.756-16.309-11.733-20.058-0.37 0.181-0.737 0.365-1.119 0.528-1.374 0.588-2.696 1.283-3.983 1.629 3.421 1.029 6.422 2.9 8.705 5.9H36.946C40.38 75 45.475 72.076 51.174 72.076zM34.274 41h33.725c0.937 2 1.568 4 1.791 7H32.549C32.761 45 33.357 43 34.274 41zM34.275 57c-0.916-2-1.518-4-1.728-6h37.26C69.609 53 69 55.216 68 57.143V57H34.275z" fill="#24a8df" data-fill-palette-color="accent"></path></g></g></svg></g></svg></g><g></g></svg></g><defs></defs></svg><rect width="395.52" height="208.39262961834925" fill="none" stroke="none" visibility="hidden"></rect></g></svg></g></svg>